<svg height="511pt" viewBox="0 -10 511.99953 511" width="511pt" xmlns="http://www.w3.org/2000/svg"><path d="m377.648438 318.652344c-7.234376-15.832032-23.230469-26.902344-41.695313-26.902344h-49.609375v192.734375h184.988281v-165.832031zm0 0" fill="#f8b53c"/><path d="m354.585938 318.652344h23.0625c-7.234376-15.832032-23.230469-26.902344-41.695313-26.902344h-23.058594c18.464844 0 34.460938 11.070312 41.691407 26.902344zm0 0" fill="#f8a814"/><path d="m448.273438 318.652344h23.058593v165.832031h-23.058593zm0 0" fill="#f8a814"/><path d="m98.929688 34.921875c-7.234376-15.832031-23.230469-26.902344-41.691407-26.902344h-49.613281v192.734375h184.988281v-165.832031zm0 0" fill="#f8b53c"/><path d="m75.871094 34.921875h23.058594c-7.234376-15.832031-23.230469-26.902344-41.691407-26.902344h-23.058593c18.460937 0 34.457031 11.070313 41.691406 26.902344zm0 0" fill="#f8a814"/><path d="m169.554688 34.921875h23.058593v165.832031h-23.058593zm0 0" fill="#f8a814"/><path d="m35.015625 73.683594-27.507813 127.070312h190.75l27.503907-127.070312zm0 0" fill="#f9cd45"/><path d="m313.730469 357.414062-27.503907 127.070313h190.75l27.503907-127.070313zm0 0" fill="#f9cd45"/><path d="m452.589844 20.945312v185.703126h-134.492188v-185.703126zm0 0" fill="#fff4f1"/><path d="m202.703125 73.683594-27.503906 127.070312h23.058593l27.503907-127.070312zm0 0" fill="#f8b53c"/><path d="m481.421875 357.414062-27.507813 127.070313h23.0625l27.503907-127.070313zm0 0" fill="#f8b53c"/><path d="m429.53125 20.945312h23.058594v185.703126h-23.058594zm0 0" fill="#ecedef"/><path d="m207.988281 331.78125-32.980469-22.585938v45.171876l32.980469-22.585938-32.980469-22.585938v45.171876zm0 0" fill="#f45a3c"/><path d="m221.1875 240.507812 32.980469 22.585938v-45.171875l-32.980469 22.585937 32.980469 22.585938v-45.171875zm0 0" fill="#f45a3c"/><g fill="#18191b"><path d="m95.863281 282.523438c3.316407 0 6.355469-2.210938 7.257813-5.566407 4.503906-16.757812 19.738281-28.464843 37.042968-28.464843h80.730469c.636719 0 1.253907-.089844 1.847657-.238282l28.308593 19.390625c.9375.640625 2.023438.964844 3.117188.964844.878906 0 1.761719-.210937 2.570312-.636719 1.808594-.953125 2.941407-2.832031 2.941407-4.878906v-14.601562h71.46875c.179687 0 .355468-.015626.535156-.027344 21.621094-.527344 40.851562-14.265625 48.554687-34.296875h72.351563c4.152344 0 7.519531-3.367188 7.519531-7.519531v-185.703126c0-4.152343-3.367187-7.519531-7.519531-7.519531h-134.492188c-4.152344 0-7.519531 3.367188-7.519531 7.519531v120.777344h-91.847656l14.382812-66.449218c.480469-2.222657-.070312-4.539063-1.496093-6.308594-1.429688-1.769532-3.582032-2.800782-5.855469-2.800782h-25.628907v-31.242187c0-4.152344-3.367187-7.519531-7.519531-7.519531h-89.101562c-9.464844-16.488282-27.132813-26.902344-46.273438-26.902344h-49.613281c-4.152344 0-7.519531 3.367188-7.519531 7.519531v191.492188c-.355469 2.113281.199219 4.285156 1.550781 5.964843 1.425781 1.769532 3.578125 2.796876 5.851562 2.796876h190.75c3.539063 0 6.597657-2.46875 7.347657-5.925782l9.867187-45.585937h95.105469v49.886719c0 4.152343 3.367187 7.519531 7.519531 7.519531h45.539063c-6.746094 11.6875-19.371094 19.285156-33.242188 19.285156h-70.714843v-15.53125c0-2.046875-1.132813-3.921875-2.941407-4.878906-1.8125-.953125-4-.828125-5.6875.332031l-29.378906 20.121094c-.257813-.027344-.515625-.042969-.78125-.042969h-80.726563c-24.09375 0-45.300781 16.285156-51.570312 39.597656-1.078125 4.011719 1.300781 8.136719 5.308594 9.214844.65625.175781 1.3125.257813 1.960937.257813zm-80.71875-266.984376h42.09375c14.921875 0 28.605469 8.835938 34.851563 22.507813 1.222656 2.675781 3.898437 4.394531 6.839844 4.394531h86.164062v23.722656h-150.078125c-3.539063 0-6.601563 2.46875-7.347656 5.929688l-12.523438 57.847656zm186.902344 132.164063c-.003906.011719-.003906.023437-.007813.035156l-9.847656 45.496094h-175.359375l24.25-112.03125h175.359375zm123.570313 51.425781v-170.664062h119.453124v170.664062zm-76.964844 29.253906v24.253907l-17.703125-12.128907zm0 0"/><path d="m510.332031 352.695312c-1.425781-1.769531-3.578125-2.800781-5.851562-2.800781h-25.628907v-31.242187c0-4.152344-3.367187-7.519532-7.519531-7.519532h-89.105469c-9.460937-16.488281-27.128906-26.902343-46.273437-26.902343h-49.609375c-4.152344 0-7.519531 3.367187-7.519531 7.519531v33.316406h-70.882813l-29.816406-20.421875c-1.6875-1.15625-3.878906-1.28125-5.6875-.328125s-2.941406 2.832032-2.941406 4.878906v15.871094h-29.460938c-.355468 0-.699218.03125-1.039062.078125-13.390625-.414062-25.699219-7.871093-32.324219-19.703125-2.027344-3.621094-6.609375-4.914062-10.234375-2.886718-3.625 2.027343-4.914062 6.609374-2.886719 10.234374 9.476563 16.921876 27.339844 27.433594 46.617188 27.433594.441406 0 .875-.042968 1.300781-.117187h28.027344v14.261719c0 2.042968 1.132812 3.921874 2.941406 4.875.808594.425781 1.691406.636718 2.570312.636718 1.09375 0 2.183594-.324218 3.117188-.964844l27.71875-18.980468c.511719.109375 1.042969.171875 1.589844.171875h71.390625v143.136719c-.355469 2.113281.195312 4.285156 1.550781 5.964843 1.425781 1.769531 3.578125 2.796875 5.851562 2.796875h190.746094c3.542969 0 6.601563-2.46875 7.351563-5.925781l27.503906-127.074219c.484375-2.222656-.066406-4.539062-1.496094-6.308594zm-329.808593-8.789062v-24.25l17.703124 12.125zm290.386718 133.058594h-175.363281l24.25-112.03125h39.542969c4.152344 0 7.519531-3.367188 7.519531-7.519532 0-4.152343-3.367187-7.519531-7.519531-7.519531h-45.609375c-3.539063 0-6.597657 2.46875-7.347657 5.929688l-12.523437 57.847656v-114.402344h42.09375c14.925781 0 28.605469 8.835938 34.855469 22.507813 1.222656 2.675781 3.894531 4.394531 6.835937 4.394531h86.164063v23.722656h-72.851563c-4.152343 0-7.519531 3.367188-7.519531 7.519531 0 4.152344 3.367188 7.519532 7.519531 7.519532h104.199219zm0 0"/><path d="m423.746094 53.140625h-76.804688c-4.152344 0-7.519531 3.367187-7.519531 7.519531s3.367187 7.519532 7.519531 7.519532h76.804688c4.15625 0 7.519531-3.367188 7.519531-7.519532s-3.363281-7.519531-7.519531-7.519531zm0 0"/><path d="m423.746094 88.566406h-76.804688c-4.152344 0-7.519531 3.367188-7.519531 7.519532 0 4.152343 3.367187 7.519531 7.519531 7.519531h76.804688c4.15625 0 7.519531-3.367188 7.519531-7.519531 0-4.152344-3.363281-7.519532-7.519531-7.519532zm0 0"/><path d="m423.746094 123.992188h-76.804688c-4.152344 0-7.519531 3.363281-7.519531 7.519531 0 4.152343 3.367187 7.519531 7.519531 7.519531h76.804688c4.15625 0 7.519531-3.367188 7.519531-7.519531 0-4.15625-3.363281-7.519531-7.519531-7.519531zm0 0"/><path d="m423.746094 159.414062h-76.804688c-4.152344 0-7.519531 3.367188-7.519531 7.519532s3.367187 7.519531 7.519531 7.519531h76.804688c4.15625 0 7.519531-3.367187 7.519531-7.519531s-3.363281-7.519532-7.519531-7.519532zm0 0"/></g></svg>