<?xml version="1.0" encoding="iso-8859-1"?>
<!-- Generator: Adobe Illustrator 19.0.0, SVG Export Plug-In . SVG Version: 6.00 Build 0)  -->
<svg version="1.1" id="Capa_1" xmlns="http://www.w3.org/2000/svg" xmlns:xlink="http://www.w3.org/1999/xlink" x="0px" y="0px"
	 viewBox="0 0 491.52 491.52" style="enable-background:new 0 0 491.52 491.52;" xml:space="preserve">
<circle style="fill:#334D5C;" cx="245.76" cy="245.76" r="245.76"/>
<path style="opacity:0.1;enable-background:new    ;" d="M298.701,104.96v9.011l-9.011-9.011h-87.86v9.011l-9.011-9.011H104.96
	v281.6l101.857,101.858c12.687,2.02,25.686,3.102,38.943,3.102c135.73,0,245.76-110.03,245.76-245.76
	c0-13.256-1.082-26.255-3.103-38.942L386.56,104.96H298.701z"/>
<rect x="104.96" y="104.96" style="fill:#27A2DB;" width="87.86" height="281.6"/>
<rect x="201.83" y="104.96" style="fill:#44C4A1;" width="87.86" height="281.6"/>
<rect x="298.7" y="104.96" style="fill:#E56353;" width="87.86" height="281.6"/>
<rect x="104.96" y="377.81" style="fill:#2D93BA;" width="87.86" height="8.755"/>
<rect x="201.83" y="377.81" style="fill:#3EA69B;" width="87.86" height="8.755"/>
<rect x="298.7" y="377.81" style="fill:#D15241;" width="87.86" height="8.755"/>
<g>
	<rect x="118.53" y="128.87" style="fill:#FFFFFF;" width="60.723" height="111.73"/>
	<rect x="215.4" y="128.87" style="fill:#FFFFFF;" width="60.723" height="111.73"/>
	<rect x="312.26" y="128.87" style="fill:#FFFFFF;" width="60.723" height="111.73"/>
</g>
<g>
	<rect x="118.53" y="232.96" style="fill:#E1E6E9;" width="60.723" height="7.67"/>
	<rect x="126.82" y="138.65" style="fill:#E1E6E9;" width="44.16" height="5.576"/>
	<rect x="126.82" y="157.88" style="fill:#E1E6E9;" width="44.16" height="5.576"/>
	<rect x="126.82" y="177.13" style="fill:#E1E6E9;" width="44.16" height="5.576"/>
	<rect x="126.82" y="196.4" style="fill:#E1E6E9;" width="44.16" height="5.576"/>
	<rect x="126.82" y="215.65" style="fill:#E1E6E9;" width="44.16" height="5.576"/>
	<rect x="223.68" y="138.65" style="fill:#E1E6E9;" width="44.16" height="5.576"/>
	<rect x="223.68" y="157.88" style="fill:#E1E6E9;" width="44.16" height="5.576"/>
	<rect x="223.68" y="177.13" style="fill:#E1E6E9;" width="44.16" height="5.576"/>
	<rect x="223.68" y="196.4" style="fill:#E1E6E9;" width="44.16" height="5.576"/>
	<rect x="223.68" y="215.65" style="fill:#E1E6E9;" width="44.16" height="5.576"/>
	<rect x="320.51" y="138.65" style="fill:#E1E6E9;" width="44.16" height="5.576"/>
	<rect x="320.51" y="157.88" style="fill:#E1E6E9;" width="44.16" height="5.576"/>
	<rect x="320.51" y="177.13" style="fill:#E1E6E9;" width="44.16" height="5.576"/>
	<rect x="320.51" y="196.4" style="fill:#E1E6E9;" width="44.16" height="5.576"/>
	<rect x="320.51" y="215.65" style="fill:#E1E6E9;" width="44.16" height="5.576"/>
	<rect x="215.4" y="232.96" style="fill:#E1E6E9;" width="60.723" height="7.67"/>
	<rect x="312.26" y="232.96" style="fill:#E1E6E9;" width="60.723" height="7.67"/>
</g>
<circle style="fill:#D5D6DB;" cx="148.89" cy="333.62" r="16.527"/>
<circle style="fill:#FFFFFF;" cx="148.89" cy="333.62" r="12.401"/>
<circle style="fill:#D5D6DB;" cx="245.76" cy="333.62" r="16.527"/>
<circle style="fill:#FFFFFF;" cx="245.76" cy="333.62" r="12.401"/>
<circle style="fill:#D5D6DB;" cx="342.62" cy="333.62" r="16.527"/>
<circle style="fill:#FFFFFF;" cx="342.62" cy="333.62" r="12.401"/>
<g>
</g>
<g>
</g>
<g>
</g>
<g>
</g>
<g>
</g>
<g>
</g>
<g>
</g>
<g>
</g>
<g>
</g>
<g>
</g>
<g>
</g>
<g>
</g>
<g>
</g>
<g>
</g>
<g>
</g>
</svg>
