<svg id="Capa_1" enable-background="new 0 0 512 512" height="512" viewBox="0 0 512 512" width="512"
     xmlns="http://www.w3.org/2000/svg">
  <g>
    <g>
      <g>
        <g>
          <g>
            <g>
              <g>
                <circle cx="256" cy="256" fill="#b5efff" r="256"/>
              </g>
            </g>
          </g>
        </g>
      </g>
    </g>
    <path
      d="m512 256c0-10.047-.579-19.959-1.705-29.705l-110.294-110.293-3.611 28.611-73.099-73.099-235.211 285.46 49.003 49.003-20.549 9.791 91.803 91.803c15.443 2.908 31.376 4.429 47.663 4.429 141.385 0 256-114.615 256-256z"
      fill="#77d9f7"/>
    <path
      d="m198.551 365.886-21.214 21.213 14.141 14.142h-42.324c-6.714 0-12.176-5.462-12.176-12.176v-91.095h-30v91.095c0 23.256 18.92 42.176 42.176 42.176h41.379l-13.196 13.197 21.214 21.213 49.88-49.882z"
      fill="#7584f2"/>
    <g>
      <g>
        <path d="m88.08 291.296h211.113v65.678h-211.113z" fill="#555a66"/>
      </g>
      <g>
        <path d="m192.867 291.296h106.325v65.678h-106.325z" fill="#333940"/>
      </g>
      <g>
        <path d="m88.08 230.669h211.113v65.678h-211.113z" fill="#636978"/>
      </g>
      <g>
        <path d="m192.867 230.669h106.325v65.678h-106.325z" fill="#414952"/>
      </g>
      <g>
        <path d="m88.08 170.042h211.113v65.678h-211.113z" fill="#555a66"/>
      </g>
      <g>
        <path d="m192.867 170.042h106.325v65.678h-106.325z" fill="#333940"/>
      </g>
      <g>
        <path d="m88.08 109.415h211.113v65.678h-211.113z" fill="#636978"/>
      </g>
      <g>
        <path d="m192.867 109.415h106.325v65.678h-106.325z" fill="#414952"/>
      </g>
    </g>
    <g>
      <circle cx="116.098" cy="143.403" fill="#2fddd0" r="13.683"/>
    </g>
    <g>
      <circle cx="157.799" cy="143.403" fill="#2fddd0" r="13.683"/>
    </g>
    <g>
      <circle cx="116.098" cy="266.552" fill="#2fddd0" r="13.683"/>
    </g>
    <g>
      <circle cx="157.799" cy="266.552" fill="#2fddd0" r="13.683"/>
    </g>
    <path
      d="m372.687 105.924h-41.378l13.196-13.197-21.214-21.213-49.88 49.882 49.88 49.882 21.214-21.213-14.141-14.142h42.324c6.714 0 12.176 5.462 12.176 12.176v91.095h30v-91.095c-.002-23.255-18.922-42.175-42.177-42.175z"
      fill="#606aea"/>
    <g>
      <path
        d="m410.648 376.507h-178.046c-13.449 0-24.352-10.903-24.352-24.352v-132.31h125.648l23.457-22.197h77.645v154.507c0 13.449-10.903 24.352-24.352 24.352z"
        fill="#fa0"/>
    </g>
    <g>
      <path d="m357.354 197.647-23.457 22.197h-15.126v156.663h91.877c13.449 0 24.352-10.903 24.352-24.352v-154.508z"
            fill="#ff9500"/>
    </g>
  </g>
</svg>
