<?xml version="1.0" encoding="iso-8859-1"?>
<!-- Generator: Adobe Illustrator 19.0.0, SVG Export Plug-In . SVG Version: 6.00 Build 0)  -->
<svg version="1.1" id="Capa_1" xmlns="http://www.w3.org/2000/svg" xmlns:xlink="http://www.w3.org/1999/xlink" x="0px" y="0px"
	 viewBox="0 0 512 512" style="enable-background:new 0 0 512 512;" xml:space="preserve">
<circle style="fill:#5C5E70;" cx="255.997" cy="255.998" r="255.997"/>
<path style="fill:#C69A6A;" d="M512,256.001c0,41.315-9.791,80.362-27.177,114.916c-4.399,8.746-9.289,17.209-14.628,25.349
	c-5.433,8.276-11.337,16.227-17.669,23.792c-46.957,56.194-117.56,91.939-196.522,91.939c-16.948,0-33.509-1.651-49.538-4.786
	c-7.649-1.505-15.172-3.344-22.559-5.507c-49.256-14.43-92.357-43.269-124.435-81.647c-6.332-7.565-12.225-15.517-17.659-23.792
	c-5.339-8.14-10.229-16.603-14.628-25.349C9.797,336.363,0.006,297.315,0.006,256.001s9.791-80.362,27.177-114.916
	C42.042,111.566,62.438,85.308,87.024,63.7C132.111,24.046,191.241,0.004,256.003,0.004S379.895,24.046,424.982,63.7
	c24.586,21.608,44.982,47.866,59.841,77.384C502.209,175.638,512,214.686,512,256.001z"/>
<path style="fill:#F9EED7;" d="M484.819,76.396v294.522c-4.399,8.746-9.289,17.209-14.628,25.349
	C424.446,465.971,345.599,511.998,256,511.998S87.554,465.971,41.809,396.267c-5.339-8.14-10.229-16.603-14.628-25.349V76.396
	c0-7.011,5.674-12.695,12.685-12.695h432.259C479.135,63.701,484.819,69.385,484.819,76.396z"/>
<path style="fill:#FFD15C;" d="M470.191,127.961v268.306C424.446,465.971,345.599,511.998,256,511.998
	S87.554,465.971,41.809,396.267V127.961L470.191,127.961L470.191,127.961z"/>
<circle style="fill:#FF525D;" cx="80.09" cy="97.145" r="15.672"/>
<circle style="fill:#FFD15C;" cx="127.11" cy="97.145" r="15.672"/>
<circle style="fill:#4BC999;" cx="176.439" cy="97.145" r="15.672"/>
<path style="fill:#D6C8B0;" d="M420.97,82.253H232.9c-8.223,0-14.889,6.666-14.889,14.889l0,0c0,8.223,6.666,14.889,14.889,14.889
	h188.07c8.223,0,14.889-6.666,14.889-14.889l0,0C435.858,88.918,429.192,82.253,420.97,82.253z"/>
<path style="fill:#34ABE0;" d="M452.525,157.635v57.375c0,4.493-3.647,8.14-8.14,8.14H67.621c-4.503,0-8.15-3.647-8.15-8.14v-57.375
	c0-4.493,3.647-8.14,8.15-8.14h376.765C448.878,149.495,452.525,153.142,452.525,157.635z"/>
<g>
	<path style="fill:#F9EED7;" d="M183.906,249.491v252.214c-20.595-6.029-40.103-14.587-58.19-25.297
		c-9.258-5.486-18.139-11.536-26.603-18.118c-14.545-11.285-27.836-24.116-39.643-38.232V249.491c0-4.503,3.647-8.15,8.15-8.15
		h108.146C180.259,241.341,183.906,244.987,183.906,249.491z"/>
	<path style="fill:#F9EED7;" d="M452.525,249.491v126.943c0,4.075-2.999,7.45-6.896,8.046c-0.408,0.063-0.825,0.094-1.243,0.094
		h-229.77c-0.136,0-0.282,0-0.418-0.01c-4.305-0.219-7.732-3.772-7.732-8.129V249.491c0-4.503,3.647-8.15,8.15-8.15h229.77
		C448.878,241.341,452.525,244.987,452.525,249.491z"/>
</g>
<path style="fill:#FF525D;" d="M452.525,415.711v4.347c-46.957,56.194-117.56,91.939-196.522,91.939
	c-16.948,0-33.509-1.651-49.538-4.786v-91.501c0-4.503,3.647-8.15,8.15-8.15h229.77
	C448.878,407.561,452.525,411.208,452.525,415.711z"/>
<circle style="fill:#FFD15C;" cx="291.533" cy="277.878" r="22.206"/>
<path style="fill:#E28D40;" d="M325.446,384.511l-64.825,0.031l-46.424,0.021c-4.305-0.219-7.732-3.772-7.732-8.129v-6.698
	l51.837-51.837l34.617,34.345L325.446,384.511z"/>
<path style="fill:#F4A14E;" d="M452.525,349.298v27.136c0,4.075-2.999,7.45-6.896,8.046l-185.039,0.094l32.329-32.329l80.968-80.958
	l26.362,26.153l43.885,43.53L452.525,349.298z"/>
<g>
	<path style="fill:#5C5E70;" d="M154.383,286.236H88.995c-2.911,0-5.27-2.359-5.27-5.27v-7.571c0-2.911,2.359-5.27,5.27-5.27h65.388
		c2.911,0,5.27,2.359,5.27,5.27v7.571C159.653,283.877,157.293,286.236,154.383,286.236z"/>
	<path style="fill:#5C5E70;" d="M154.383,324.27H88.995c-2.911,0-5.27-2.359-5.27-5.27v-7.571c0-2.911,2.359-5.27,5.27-5.27h65.388
		c2.911,0,5.27,2.359,5.27,5.27V319C159.653,321.911,157.293,324.27,154.383,324.27z"/>
	<path style="fill:#5C5E70;" d="M154.383,362.304H88.995c-2.911,0-5.27-2.359-5.27-5.27v-7.571c0-2.911,2.359-5.27,5.27-5.27h65.388
		c2.911,0,5.27,2.359,5.27,5.27v7.571C159.653,359.945,157.293,362.304,154.383,362.304z"/>
	<path style="fill:#5C5E70;" d="M154.383,400.338H88.995c-2.911,0-5.27-2.359-5.27-5.27v-7.571c0-2.911,2.359-5.27,5.27-5.27h65.388
		c2.911,0,5.27,2.359,5.27,5.27v7.571C159.653,397.978,157.293,400.338,154.383,400.338z"/>
	<path style="fill:#5C5E70;" d="M154.383,438.372H88.995c-2.911,0-5.27-2.359-5.27-5.27v-7.571c0-2.911,2.359-5.27,5.27-5.27h65.388
		c2.911,0,5.27,2.359,5.27,5.27v7.571C159.653,436.012,157.293,438.372,154.383,438.372z"/>
	<path style="fill:#5C5E70;" d="M159.654,463.567v7.565c0,2.915-2.361,5.277-5.277,5.277h-28.661
		c-9.258-5.486-18.139-11.536-26.603-18.118h55.264C157.293,458.29,159.654,460.652,159.654,463.567z"/>
</g>
<g>
</g>
<g>
</g>
<g>
</g>
<g>
</g>
<g>
</g>
<g>
</g>
<g>
</g>
<g>
</g>
<g>
</g>
<g>
</g>
<g>
</g>
<g>
</g>
<g>
</g>
<g>
</g>
<g>
</g>
</svg>
