<?xml version="1.0" encoding="iso-8859-1"?>
<!-- Generator: Adobe Illustrator 19.0.0, SVG Export Plug-In . SVG Version: 6.00 Build 0)  -->
<svg version="1.1" id="Capa_1" xmlns="http://www.w3.org/2000/svg" xmlns:xlink="http://www.w3.org/1999/xlink" x="0px" y="0px"
	 viewBox="0 0 512 512" style="enable-background:new 0 0 512 512;" xml:space="preserve">
<path style="fill:#EF2E2E;" d="M75.771,165.758C29.597,211.931,0,275.681,0,345.987c0,8.291,6.709,15,15,15c32.567,0,58.433,0,91,0
	c8.291,0,15-6.709,15-15c0-37.222,15.139-70.972,39.584-95.416l-9.238-39.238l-25.123-25.123L75.771,165.758z"/>
<path style="fill:#17ACE8;" d="M256,90.987c0,4.908-15,9.685-15,14.36c0,31.801,0,58.904,0,90.643c0,4.878,15,9.866,15,14.997
	c37.222,0,70.972,15.139,95.416,39.584l13.646,1.354l62.812-62.812l8.355-23.355C390.055,119.584,326.305,90.987,256,90.987z"/>
<path style="fill:#FEDB41;" d="M75.771,165.758l84.813,84.813c24.445-24.445,58.195-39.584,95.416-39.584c0-43.423,0-76.577,0-120
	C185.695,90.987,121.945,119.584,75.771,165.758z"/>
<path style="fill:#10BB67;" d="M436.229,165.758l-84.813,84.813C375.861,275.015,391,308.765,391,345.987c0,8.291,6.709,15,15,15
	c32.567,0,58.433,0,91,0c8.291,0,15-6.709,15-15C512,275.681,482.403,211.931,436.229,165.758z"/>
<path style="fill:#495A79;" d="M371.8,228.686c-4.799-4.499-12.299-5.099-17.999-1.5c-47.1,30.3-82.8,53.101-129.901,83.101
	c-8.699,5.7-15.899,13.2-20.4,21.899c-12.9,23.101-9,52.2,10.201,71.1c19.799,20.099,50.7,23.401,74.7,8.401
	c9.3-6.301,17.1-15,21.899-25.501c23.699-50.7,41.7-89.099,65.4-139.799C378.401,240.386,376.901,233.186,371.8,228.686z"/>
<path style="fill:#42516D;" d="M375.7,246.386c-23.699,50.7-41.7,89.099-65.4,139.799c-4.799,10.501-12.599,19.2-21.899,25.501
	c-24,15-54.901,11.699-74.7-8.401l158.099-174.6C376.901,233.186,378.401,240.386,375.7,246.386z"/>
<g>
</g>
<g>
</g>
<g>
</g>
<g>
</g>
<g>
</g>
<g>
</g>
<g>
</g>
<g>
</g>
<g>
</g>
<g>
</g>
<g>
</g>
<g>
</g>
<g>
</g>
<g>
</g>
<g>
</g>
</svg>
